<svg xmlns="http://www.w3.org/2000/svg" width="412.731" height="472.26" viewBox="0 0 412.731 472.26">
  <defs>
    <style>
      .cls-1 {
        fill: #a677ff;
        fill-rule: evenodd;
      }

      .cls-2 {
        fill: #8646ff;
      }

      .cls-3 {
        fill: #fff;
      }
    </style>
  </defs>
  <g id="hexagon-fill" transform="translate(-146.25 -15.321)">
    <path id="Path_1" data-name="Path 1" class="cls-1" d="M223.356,3.949a29.481,29.481,0,0,0-29.481,0L16.99,109.4A29.481,29.481,0,0,0,2.25,134.923V336.755a29.481,29.481,0,0,0,14.74,25.524l176.885,105.45a29.481,29.481,0,0,0,29.481,0l176.885-105.45a29.481,29.481,0,0,0,14.74-25.524V134.936a29.481,29.481,0,0,0-14.74-25.524Z" transform="translate(144 15.322)"/>
    <path id="Intersection_1" data-name="Intersection 1" class="cls-2" d="M-1018.769,642.889-1195.655,537.44a29.481,29.481,0,0,1-13.178-16.061l402.355-232.3a29.482,29.482,0,0,1,8.815,21.018V511.916A29.481,29.481,0,0,1-812.4,537.44L-989.288,642.889a29.46,29.46,0,0,1-14.741,3.95A29.46,29.46,0,0,1-1018.769,642.889Z" transform="translate(1356.644 -159.258)"/>
    <path id="blazor" class="cls-3" d="M287.253,83.616A167.187,167.187,0,0,1,123.318,224.47a121.44,121.44,0,0,1-23.962-1.454,73.445,73.445,0,0,1-61.073-69.233,71.312,71.312,0,0,1,142.6-1.008c.3,11.821-4.821,22.19-15.345,22.49-11.244,0-16.515-8.024-16.515-18.837V126.38a18.406,18.406,0,0,0-18.259-18.421H105.58a43.843,43.843,0,1,0,32.382,73.062l.881-1.313.882,1.458a31.014,31.014,0,0,0,26.446,12.594,34.956,34.956,0,0,0,32.382-36.543,95.1,95.1,0,0,0-2.609-23.224,88.975,88.975,0,0,0-175.917,19.27,90.1,90.1,0,0,0,87.807,88.985,139.1,139.1,0,0,0,14.032.429A189.88,189.88,0,0,0,223.7,212.292c.432-.3.864.3.576.737a149.471,149.471,0,0,1-116.443,47.622A105.082,105.082,0,0,1,.888,152.829a108.764,108.764,0,0,1,43.679-87.1A106.5,106.5,0,0,1,107.4,44.987h33.8a95.1,95.1,0,0,0,70.16-30.98,1.313,1.313,0,0,1,.713-.407,1.34,1.34,0,0,1,1.436.627,1.355,1.355,0,0,1,.186.807,95.374,95.374,0,0,1-14.749,42.655,1.312,1.312,0,0,0,1.454,1.907A102.2,102.2,0,0,0,271.467,1a1.873,1.873,0,0,1,.657-.633,1.8,1.8,0,0,1,1.766,0,1.839,1.839,0,0,1,.656.633,129.552,129.552,0,0,1,12.707,82.62ZM107.745,126.005A26.3,26.3,0,1,0,134.033,152.3V127.751a1.9,1.9,0,0,0-1.8-1.8Z" transform="translate(207.564 120.689)"/>
  </g>
</svg>
