<svg xmlns="http://www.w3.org/2000/svg" width="401.649" height="401.649" viewBox="0 0 401.649 401.649">
  <g id="dotnetcore-original" transform="translate(-53.076 -55.776)">
    <path id="Path_1" data-name="Path 1" d="M454.6,256.6c-9.2,58.5-27.1,75.6-58.8,114.9-31.7,33.3-77.3,88.9-141.9,85.8-58.5-9.2-75.6-27.1-114.9-58.8-33.3-31.7-88.9-77.3-85.8-141.9C62.4,198.1,80.3,181,112,141.7c31.7-33.3,77.3-88.9,141.9-85.8,58.5,9.2,75.6,27.1,114.9,58.8C402.1,146.4,457.7,192,454.6,256.6Z" fill="#8737af"/>
    <g id="Group_1" data-name="Group 1">
      <path id="Path_2" data-name="Path 2" d="M137,282.4H113.8l-3.2,12H89.8l24.8-72.8h22.2l24.8,72.8H140.3l-3.3-12Zm-4.3-15.7-7.3-26.2-7.2,26.2Zm20.5,3.6,19.4-1.4c.5,3.5,1.3,6.1,2.6,7.9a10.482,10.482,0,0,0,9,4.4c2.9,0,5.1-.7,6.7-2.3a7.427,7.427,0,0,0,2.4-5.2,6.724,6.724,0,0,0-2.3-5.1c-1.5-1.5-5-2.9-10.4-4.2-8.9-2.2-15.3-5.2-19.1-8.8a18.616,18.616,0,0,1-5.7-14,21.132,21.132,0,0,1,2.9-10.6,20.385,20.385,0,0,1,8.8-7.8c3.9-1.9,9.3-2.8,16.2-2.8,8.4,0,14.9,1.7,19.2,5.2,4.4,3.5,7,8.9,7.8,16.5l-19.2,1.3c-.5-3.3-1.5-5.7-3.2-7.2a9.505,9.505,0,0,0-6.7-2.2c-2.4,0-4.2.5-5.4,1.6a5.33,5.33,0,0,0-1.8,4,4.024,4.024,0,0,0,1.5,3.1c1,1,3.3,1.8,6.8,2.6,8.9,2.1,15.2,4.3,19.1,6.5,3.8,2.2,6.7,4.8,8.4,8.1a22.686,22.686,0,0,1,2.6,10.8,24.641,24.641,0,0,1-3.6,12.9,22.815,22.815,0,0,1-9.8,8.9q-6.3,3-15.9,3c-11.2,0-19-2.4-23.2-7.2-4-4.6-6.5-10.6-7.1-18ZM212,221.6h33.8c7.4,0,12.9,1.9,16.6,5.8,3.6,3.8,5.5,9.4,5.5,16.5,0,7.4-2,13.1-6,17.2s-10.1,6.2-18.3,6.2H232.5v27.1H212V221.6Zm20.4,31h5c3.9,0,6.7-.7,8.3-2.3a8.018,8.018,0,0,0,2.4-5.7,8.446,8.446,0,0,0-2.1-5.8c-1.4-1.5-3.9-2.4-7.7-2.4h-5.8v16.2Z" fill="#fff"/>
      <path id="Path_3" data-name="Path 3" d="M276,293.6V231.5h8.3v8.8c4-6.8,9.8-10.2,17.3-10.2a19.2,19.2,0,0,1,9,2,15.51,15.51,0,0,1,6.2,5.3,22.051,22.051,0,0,1,2.9,7.7,61.443,61.443,0,0,1,.5,10.2v38.1H311V255.7a32.211,32.211,0,0,0-1.1-9.6,10.169,10.169,0,0,0-3.8-5.1,10.844,10.844,0,0,0-6.5-1.9,14.314,14.314,0,0,0-10.2,4.3c-2.8,2.8-4.3,8.2-4.3,16.2v33.9l-9.1.1Zm95.5-20L381,275c-1.5,6.4-4.3,11.3-8.3,14.8-4.1,3.5-9.3,5.3-15.6,5.3q-11.85,0-18.9-8.4c-4.6-5.6-7-13.4-7-23.5,0-10.5,2.4-18.5,7-24.3a22.743,22.743,0,0,1,18.3-8.7,21.746,21.746,0,0,1,17.8,8.5c4.6,5.7,6.9,13.6,6.9,23.8,0,.6,0,1.5-.1,2.8H340.5c.4,6.8,2,12,5.1,15.7a14.3,14.3,0,0,0,11.4,5.5,13.144,13.144,0,0,0,8.7-3c2.5-2.2,4.4-5.5,5.8-9.9Zm-30.3-17h30.4c-.4-5.2-1.5-9.1-3.5-11.8-2.9-4-6.7-6.1-11.4-6.1a14.078,14.078,0,0,0-10.7,4.8c-2.9,3.3-4.4,7.7-4.8,13.1Zm71.5,27.6,1.4,9.3a31.131,31.131,0,0,1-6.9.9c-3.4,0-5.9-.6-7.7-1.8a10.447,10.447,0,0,1-3.9-4.7c-.7-1.9-1.1-6.1-1.1-12.4V239.8H365v-8.2h29.4V216.2l9.2-6.3v21.7h9.3v8.2h-9.3V276a20.541,20.541,0,0,0,.5,5.7,6.228,6.228,0,0,0,1.5,2.1,5.482,5.482,0,0,0,3.1.7,15.011,15.011,0,0,0,4-.3Z" fill="#fff"/>
      <path id="Path_4" data-name="Path 4" d="M262.3,277.5a7.5,7.5,0,1,1-7.4,7.5,7.535,7.535,0,0,1,7.4-7.5Z" fill="#fff"/>
    </g>
  </g>
</svg>
