<svg xmlns="http://www.w3.org/2000/svg" width="60" height="22.171" viewBox="0 0 60 22.171">
  <defs>
    <style>
      .cls-1 {
        fill: #fff;
      }
    </style>
  </defs>
  <g id="dotnet" transform="translate(-975 -377.115)">
    <path id="dotnet-2" data-name="dotnet" class="cls-1" d="M7.916,11.349V33.22h2.558V17.409a22.447,22.447,0,0,0-.123-3h.1a7.27,7.27,0,0,0,.7,1.368L22.385,33.221h3.142V11.349H22.975v15.38a23.144,23.144,0,0,0,.155,3.215h-.055q-.416-.747-.887-1.462L11.24,11.349Zm23.289,0V33.22H42.83l.012-2.4H33.82v-7.58h7.9V20.934h-7.9v-7.27h8.472V11.349Zm13.6,0v2.315h6.285V33.22h2.555V13.666H60V11.351ZM1.633,30.1a1.608,1.608,0,0,0-1.14.515A1.68,1.68,0,0,0,0,31.818a1.655,1.655,0,0,0,.492,1.2,1.62,1.62,0,0,0,1.2.5,1.655,1.655,0,0,0,1.2-.5,1.643,1.643,0,0,0,.5-1.2,1.668,1.668,0,0,0-.5-1.2,1.643,1.643,0,0,0-1.2-.515Z" transform="translate(974.999 365.766)"/>
  </g>
</svg>
