<svg xmlns="http://www.w3.org/2000/svg" xmlns:xlink="http://www.w3.org/1999/xlink" width="98.559" height="98.423" viewBox="0 0 98.559 98.423">
  <defs>
    <style>
      .cls-1 {
        fill: #fff;
      }

      .cls-2 {
        filter: url(#visualstudio);
      }
    </style>
    <filter id="visualstudio" x="0" y="0" width="98.559" height="98.423" filterUnits="userSpaceOnUse">
      <feOffset dy="3" input="SourceAlpha"/>
      <feGaussianBlur stdDeviation="3" result="blur"/>
      <feFlood flood-opacity="0.369"/>
      <feComposite operator="in" in2="blur"/>
      <feComposite in="SourceGraphic"/>
    </filter>
  </defs>
  <g class="cls-2" transform="matrix(1, 0, 0, 1, 0, 0)">
    <path id="visualstudio-2" data-name="visualstudio" class="cls-1" d="M43.97.105a3.752,3.752,0,0,0-2.582.981h0q-.064.054-.125.113L21.331,23.238,9.7,13.7l-1.017-.876a2.5,2.5,0,0,0-2.56-.385l-.03.012L1.549,14.325q-.1.04-.192.088-.06.033-.118.07l-.1.055q-.061.041-.12.085l-.077.06q-.055.043-.108.09t-.09.083q-.041.043-.08.088t-.083.1q-.046.054-.088.11t-.06.085q-.042.062-.08.127-.026.042-.05.085-.032.062-.06.125t-.05.113q-.021.055-.04.11t-.04.118q-.02.069-.037.138-.014.05-.025.1-.012.067-.02.135t-.015.125q-.009.1-.01.207V43.281a2.5,2.5,0,0,0,1.538,2.295L6.09,47.486a2.5,2.5,0,0,0,2.587-.407L9.7,46.2,21.33,36.664,41.262,58.7q.087.085.18.163.07.064.143.125t.145.105q.078.057.158.11t.163.1q.081.047.163.09t.17.077q.087.04.175.075t.182.063q.082.027.165.05.1.028.2.05.085.019.17.035t.187.025q.093.012.187.018t.182.008q.1,0,.192,0t.2-.012q.084-.007.168-.018.11-.014.218-.035.075-.013.15-.03.1-.025.2-.055t.17-.05q.088-.033.175-.07.113-.042.223-.092l12.363-5.944a3.752,3.752,0,0,0,1.187-.906q.119-.135.225-.28l.01-.018q.108-.152.2-.314.084-.147.155-.3l.022-.043q.056-.132.1-.268.018-.046.035-.092.042-.133.075-.268.011-.046.022-.092.026-.124.043-.25.011-.062.02-.125Q60,50.417,60,50.3q.008-.1.01-.2V9.8q0-.04,0-.08a3.72,3.72,0,0,0-2.126-3.3L45.528.474A3.752,3.752,0,0,0,43.975.108Zm1.042,17.14V42.654l-15.5-12.7Zm-37.5,4.138,7.748,8.567L7.511,38.515Z" transform="matrix(0.89, 0.45, -0.45, 0.89, 36.14, 5.9)"/>
  </g>
</svg>
